<svg class="logo" xmlns="http://www.w3.org/2000/svg" viewBox="0 0 2500 500">
  <path fill="#a814f6" d="M417.035 177.458c0 52.467-42.535 95-95 95-52.467 0-95-42.535-95-95 0-52.468 42.533-95.003 95-95.003 52.468 0 95 42.535 95 95.003z"/>
  <path fill="#a75525" d="M147 426.61c0 35.5 28.838 64.39 64.27 64.39 30.28 0 56.742-21.56 62.91-51.254l18.98-83.704c3.365-16.104 10.098-27.767 26.493-27.767 16.662 0 23.356 11.904 26.507 28.33l17.658 80.947C369.745 468.53 396.9 491 428.382 491c36.234 0 65.74-29.533 65.74-65.86V183.37C486.235 83.61 407.776 9.467 320.695 11.94 226.5 14.61 148.65 94.86 147 183.37z"/>
  <path fill="#0cdfab" d="M375.834 148.017c0 15.188-12.313 27.5-27.5 27.5-15.188 0-27.5-12.313-27.5-27.5 0-15.188 12.312-27.5 27.5-27.5s27.5 12.312 27.5 27.5z"/>
  <path fill="#0576b5" d="M417.035 177.458c0 52.467-42.535 95-95 95-52.467 0-95-42.535-95-95 0-52.468 42.533-95.003 95-95.003 52.468 0 95 42.535 95 95.003z"/>
  <g fill="#a3abac">
    <path fill="#318526" d="M638.19 159.674c-.154 92.58-1.567 180.174-.093 271.5h31.563V408.86l20.406 10.5c14.665 7.543 31.08 11.845 48.75 11.845 57.03 0 102.687-44.125 102.687-98.094 0-53.993-45.5-98.124-102.53-98.124-17.67 0-34.262 4.354-48.688 11.844l-20.47 10.625v-97.75l-31.624-.03zm102.626 101.75c38.74.1 70.906 30.95 70.906 69.22 0 38.274-32.225 69-70.937 69-38.77 0-70.97-30.89-70.97-69.158 0-38.386 32.262-69.16 71-69.062zM957.003 238.737l-.312 98.937v.03c.017 61.61 45.715 93.5 87.813 93.5 42.257 0 87.47-28.833 87.47-93.53v-98.78l-33.97.342-.72 98.532v.03c-.192 19.148-6.258 35.016-16.624 45.72-10.367 10.703-24.55 15.724-38.407 15.28h-.03c-13.154-.442-26.303-6.197-35.063-17.062-8.76-10.865-13.127-25.713-13.5-43.78v-.032l-1.875-99.188h-34.782zM1394.502 159.674v271.53h31.594v-271.53h-31.594z"/>
    <path fill="#b65761" d="M1881.368 387.924c-12.037.23-21.25 9.676-21.25 21.625 0 11.93 9.54 21.518 21.438 21.655 11.625-.468 19.625-11.03 20.687-22.062.534-5.548-.782-10.352-3.656-13.875-2.817-3.453-7.49-6.554-17.22-7.344z"/>
    <path fill="#d87a58" d="M2017.547 238.736v192.47h31.593v-192.47h-31.593zM1744.314 159.674l-31.157.03v97.75l-20.437-10.624c-14.426-7.49-31.05-11.812-48.72-11.812-57.208 0-102.718 44.1-102.718 98.093 0 53.97 45.71 98.095 102.563 98.095 17.31 0 33.948-4.317 48.594-11.844l20.405-10.5v22.314h31.53c1.222-91.356.067-178.963-.06-271.5zm-102.157 101.75c38.736-.1 71 30.676 71 69.063 0 38.268-32.198 69.156-70.968 69.156-38.714 0-70.94-30.725-70.94-69 0-38.27 32.17-69.12 70.907-69.22zM1247.16 239.08l.405 192.125h31.75l-.594-192.125h-31.56zM2265.858 235.018c-56.724.34-101.53 44.26-101.53 98.093 0 54.047 45.144 98.095 102.187 98.095 57.03 0 102.53-44.1 102.53-98.094 0-53.968-45.688-98.092-102.53-98.092h-.657zm.72 28.593c38.67.21 70.874 30.95 70.874 69.345 0 38.142-32.17 69-70.937 69-38.723 0-70.97-30.793-70.97-69.187 0-38.387 32.218-69.366 71.032-69.157z"/>
  </g>
  <path fill="none" stroke="#64c4d4" stroke-width="18" d="M417.035 177.458c0 52.467-42.535 95-95 95-52.467 0-95-42.535-95-95 0-52.468 42.533-95.003 95-95.003 52.468 0 95 42.535 95 95.003z"/>
  <path fill="none" stroke="#64c4d4" stroke-width="18" d="M147 426.61c0 35.5 28.838 64.39 64.27 64.39 30.28 0 56.742-21.56 62.91-51.254l18.98-83.704c3.365-16.104 10.098-27.767 26.493-27.767 16.662 0 23.356 11.904 26.507 28.33l17.658 80.947C369.745 468.53 396.9 491 428.382 491c36.234 0 65.74-29.533 65.74-65.86V183.37C486.235 83.61 407.776 9.467 320.695 11.94 226.5 14.61 148.65 94.86 147 183.37z"/>
  <path fill="#ffa333" d="M375.834 148.017c0 15.188-12.313 27.5-27.5 27.5-15.188 0-27.5-12.313-27.5-27.5 0-15.188 12.312-27.5 27.5-27.5s27.5 12.312 27.5 27.5z"/>
</svg>
