<svg class="logo" xmlns="http://www.w3.org/2000/svg" viewBox="0 0 2300 512">
  <g id="mascot-bg" fill="#fff">
    <g id="g3004">
      <path id="path3006" d="M287.656 179.805c0 54.037-43.85 97.842-97.937 97.842-54.09 0-97.937-43.807-97.937-97.842 0-54.037 43.847-97.844 97.936-97.844 54.09 0 97.936 43.808 97.936 97.845z"/>
      <path id="path3008" d="M9.275 436.41c0 36.56 29.728 66.316 66.256 66.316 31.217 0 58.496-22.206 64.856-52.787l19.566-86.21c3.47-16.585 10.41-28.597 27.312-28.597 17.177 0 24.078 12.26 27.326 29.177l18.204 83.37c6.11 31.903 34.105 55.046 66.56 55.046 37.353 0 67.77-30.416 67.77-67.83V185.893C358.995 83.15 278.11 6.79 188.34 9.335c-97.106 2.75-177.362 85.4-179.064 176.558z"/>
      <path id="path3010" d="M245.18 149.484c0 15.642-12.692 28.323-28.35 28.323-15.656 0-28.35-12.682-28.35-28.323 0-15.642 12.694-28.323 28.35-28.323 15.658 0 28.35 12.682 28.35 28.324z"/>
    </g>
  </g>
  <path id="mascot-left" fill="#64c4d4" d="M192.55 9.27c-1.398 0-2.817.024-4.22.064C91.224 12.084 10.976 94.742 9.274 185.9v250.526c0 36.56 29.74 66.3 66.268 66.3 31.216 0 58.49-22.202 64.85-52.783l19.556-86.223c3.47-16.585 10.417-28.58 27.32-28.58 3.917 0 7.284.65 10.21 1.835V9.365c-1.64-.05-3.28-.097-4.928-.095z"/>
  <path id="mascot-right" fill="#dfe0e1" d="M192.55 9.27c-.992 0-2 .012-2.996.03v325.904c15.503 1.058 21.933 12.955 25.032 29.095l18.202 83.39c6.11 31.904 34.104 55.036 66.558 55.036 16.555 0 31.736-5.986 43.524-15.9V103.733C311.57 46.487 254.423 9.206 192.55 9.27z"/>
  <path id="mascot-body" fill="none" stroke="#231f20" stroke-width="18.547" d="M9.275 436.41c0 36.56 29.728 66.316 66.256 66.316 31.217 0 58.496-22.206 64.856-52.787l19.566-86.21c3.47-16.585 10.41-28.597 27.312-28.597 17.177 0 24.078 12.26 27.326 29.177l18.204 83.37c6.11 31.903 34.105 55.046 66.56 55.046 37.353 0 67.77-30.416 67.77-67.83V185.893C358.995 83.15 278.11 6.79 188.34 9.335c-97.106 2.75-177.362 85.4-179.064 176.558z"/>
  <path id="letter-b" fill="#231f20" d="M515.648 161.49c-.16 95.35-1.617 185.563-.097 279.62h32.54v-22.98l21.036 10.815c15.12 7.767 32.042 12.198 50.257 12.198 58.794 0 105.862-45.446 105.862-101.028 0-55.61-46.907-101.06-105.7-101.06-18.216 0-35.32 4.483-50.193 12.198l-21.102 10.943V161.523l-32.602-.033zm105.797 104.793c39.938.102 73.098 31.877 73.098 71.29 0 39.42-33.22 71.063-73.13 71.063-39.97 0-73.163-31.812-73.163-71.225 0-39.534 33.258-71.23 73.195-71.127z"/>
  <path id="letter-u" fill="#231f20" d="M844.314 242.917l-.322 101.897v.032c.016 63.45 47.127 96.297 90.527 96.297 43.562 0 90.17-29.697 90.17-96.33V243.08l-35.017.354-.74 101.478v.032c-.2 19.72-6.454 36.063-17.14 47.087-10.687 11.022-25.307 16.193-39.594 15.737h-.033c-13.56-.456-27.115-6.383-36.146-17.573-9.03-11.19-13.53-26.482-13.916-45.09v-.033l-1.933-102.153h-35.856z"/>
  <path id="letter-l" fill="#231f20" d="M1295.336 161.49v279.653h32.57V161.49h-32.57z"/>
  <path id="letter-dot" fill="#231f20" d="M1797.252 396.567c-12.41.238-21.907 9.965-21.907 22.272 0 12.287 9.835 22.162 22.1 22.303 11.986-.482 20.232-11.36 21.327-22.723.55-5.713-.806-10.66-3.77-14.29-2.903-3.556-7.72-6.75-17.75-7.563z"/>
  <path id="letter-ii" fill="#231f20" d="M1937.64 242.917v198.226h32.57V242.917h-32.57z"/>
  <path id="builder-d" fill="#231f20" d="M1655.96 161.49l-32.118.032v100.674l-21.07-10.943c-14.87-7.715-32.01-12.166-50.224-12.166-58.978 0-105.894 45.42-105.894 101.028 0 55.582 47.122 101.028 105.733 101.028 17.846 0 34.998-4.447 50.096-12.198l21.037-10.814v22.98h32.506c1.258-94.088.068-184.316-.064-279.62zm-105.313 104.793c39.933-.102 73.195 31.594 73.195 71.13 0 39.41-33.193 71.224-73.163 71.224-39.91 0-73.13-31.644-73.13-71.064 0-39.416 33.163-71.188 73.097-71.29z"/>
  <path id="letter-i" fill="#231f20" d="M1143.44 243.27l.417 197.873h32.732l-.613-197.872h-32.538z"/>
  <path id="letter-o" fill="#231f20" d="M2193.627 239.087c-58.478.352-104.67 45.583-104.67 101.028 0 55.662 46.54 101.028 105.347 101.028 58.794 0 105.7-45.42 105.7-101.028 0-55.584-47.1-101.028-105.7-101.028h-.677zm.74 29.45c39.868.214 73.067 31.874 73.067 71.417 0 39.283-33.166 71.064-73.13 71.064-39.92 0-73.163-31.714-73.163-71.257 0-39.534 33.214-71.44 73.228-71.224z"/>
  <path id="macot-eye" fill="#fff" stroke="#231f20" stroke-width="18.547" d="M287.656 179.805c0 54.037-43.85 97.842-97.937 97.842-54.09 0-97.937-43.807-97.937-97.842 0-54.036 43.847-97.844 97.936-97.844 54.09 0 97.936 43.81 97.936 97.845z"/>
  <path id="path3945" fill="#231f20" d="M245.18 149.484c0 15.642-12.692 28.323-28.35 28.323-15.656 0-28.35-12.682-28.35-28.323 0-15.642 12.694-28.323 28.35-28.323 15.658 0 28.35 12.682 28.35 28.324z"/>
  <path id="mascot-dot" fill="#231f20" d="M245.18 149.484c0 15.642-12.692 28.323-28.35 28.323-15.656 0-28.35-12.682-28.35-28.323 0-15.642 12.694-28.323 28.35-28.323 15.658 0 28.35 12.682 28.35 28.324z"/>
</svg>